<svg width="99" height="66" viewBox="0 0 99 66" fill="none" xmlns="http://www.w3.org/2000/svg">
<mask id="mask0_181_403" style="mask-type:alpha" maskUnits="userSpaceOnUse" x="0" y="8" width="99" height="28">
<g clip-path="url(#clip0_181_403)">
<path d="M6.44674 35.6743V8.70916H3.26318V35.6743H6.44674Z" fill="#BFEA88"/>
<path d="M77.1245 35.6875H78.6859V8.71654H77.1245V35.6875Z" fill="#BFEA88"/>
<path d="M48.7144 35.689H50.2722V8.70556H48.7144V35.689Z" fill="#BFEA88"/>
<path d="M82.8057 35.6885H84.3659V8.70507H82.8057V35.6885Z" fill="#BFEA88"/>
<path d="M68.1938 35.6875H69.7553V8.71654H68.1938V35.6875Z" fill="#BFEA88"/>
<path d="M98.9658 8.70312H97.4092V35.6865H98.9658V8.70312Z" fill="#BFEA88"/>
<path d="M24.3613 35.6885H25.9227V8.71752H24.3613V35.6885Z" fill="#BFEA88"/>
<path d="M9.74756 35.6958H11.2959V8.71571H9.74756V35.6958Z" fill="#BFEA88"/>
<path d="M33.2182 8.7041H31.6592V35.6875H33.2182V8.7041Z" fill="#BFEA88"/>
<path d="M38.9688 35.6958H40.5159V8.71654H38.9688V35.6958Z" fill="#BFEA88"/>
<path d="M53.5806 35.6958H55.1277V8.71571H53.5806V35.6958Z" fill="#BFEA88"/>
<path d="M60.0096 8.70555H58.4565V35.6724H60.0096V8.70555Z" fill="#BFEA88"/>
<path d="M16.1711 8.70336H14.6216V35.6826H16.1711V8.70253V8.70336Z" fill="#BFEA88"/>
<path d="M34.105 35.6875H35.6628V8.70492H34.105V35.6875Z" fill="#BFEA88"/>
<path d="M91.7402 35.6934H93.285V8.7141H91.7402V35.6934Z" fill="#BFEA88"/>
<path d="M89.2335 8.70555H87.6816V35.6724H89.2335V8.70555Z" fill="#BFEA88"/>
<path d="M80.3696 35.6875H81.12V8.70243H80.3696V35.6875Z" fill="#BFEA88"/>
<path d="M0.750334 8.7039H0V35.689H0.750334V8.7039Z" fill="#BFEA88"/>
<path d="M86.0527 35.6895H86.8007V8.70439H86.0527V35.6895Z" fill="#BFEA88"/>
<path d="M71.4395 35.6875H72.1898V8.70243H71.4395V35.6875Z" fill="#BFEA88"/>
<path d="M65.7603 35.6899H66.5058V8.70488H65.7603V35.6899Z" fill="#BFEA88"/>
<path d="M95.7235 8.70473H94.9731V35.689H95.7235V8.7039V8.70473Z" fill="#BFEA88"/>
<path d="M13.7371 8.70522H12.9868V35.6895H13.7371V8.70439V8.70522Z" fill="#BFEA88"/>
<path d="M57.5739 8.69584H56.8379V35.6768H57.5739V8.69501V8.69584Z" fill="#BFEA88"/>
<path d="M17.8647 35.6885H18.6151V8.70341H17.8647V35.6885Z" fill="#BFEA88"/>
<path d="M28.3478 8.70424H27.5986V35.6885H28.3478V8.70341V8.70424Z" fill="#BFEA88"/>
<path d="M42.2183 35.6895H42.9674V8.70439H42.2183V35.6895Z" fill="#BFEA88"/>
<path d="M21.9253 35.689H22.6732V8.7039H21.9253V35.689Z" fill="#BFEA88"/>
<path d="M45.4673 35.6899H46.214V8.70488H45.4673V35.6899Z" fill="#BFEA88"/>
<path d="M74.6924 35.6909H75.4356V8.70585H74.6924V35.6909Z" fill="#BFEA88"/>
<path d="M29.973 8.70639H29.2334V35.689H29.973V8.70639Z" fill="#BFEA88"/>
<path d="M19.4932 35.6875H20.2304V8.71156H19.4932V35.6875Z" fill="#BFEA88"/>
<path d="M1.63477 35.6875H2.37081V8.71156H1.63477V35.6875Z" fill="#BFEA88"/>
<path d="M44.5842 8.69575H43.8506V35.6899H44.5842V8.69575Z" fill="#BFEA88"/>
<path d="M73.8047 8.70493H73.0698V35.6875H73.8047V8.7041V8.70493Z" fill="#BFEA88"/>
<path d="M61.6321 8.69575H60.8984V35.6899H61.6321V8.69575Z" fill="#BFEA88"/>
<path d="M62.5171 35.6895H63.2627V8.70439H62.5171V35.6895Z" fill="#BFEA88"/>
<path d="M90.8525 8.70605H90.1152V35.6895H90.8525V8.70688V8.70605Z" fill="#BFEA88"/>
<path d="M51.1523 35.6899H51.8955V8.70488H51.1523V35.6899Z" fill="#BFEA88"/>
<path d="M7.31787 35.6909H8.06106V8.70585H7.31787V35.6909Z" fill="#BFEA88"/>
<path d="M37.2782 8.70688H36.541V35.6895H37.2782V8.70688Z" fill="#BFEA88"/>
</g>
</mask>
<g mask="url(#mask0_181_403)">
<path d="M-13.2681 -1.86914H99V46.2613H-13.2681V-1.86914Z" fill="#1D1D1D"/>
</g>
<g clip-path="url(#clip1_181_403)">
<path fill-rule="evenodd" clip-rule="evenodd" d="M51.5714 64.6357C51.1917 64.6757 50.8102 64.6958 50.4286 64.6958C47.3975 64.6958 44.4906 63.4315 42.3474 61.1811C40.2041 58.9306 39 55.8784 39 52.6958C39 49.5132 40.2041 46.461 42.3474 44.2105C44.4906 41.9601 47.3975 40.6958 50.4286 40.6958C50.8102 40.6958 51.1917 40.7159 51.5714 40.756V44.356C51.1923 44.3073 50.8104 44.2872 50.4286 44.2958C48.3068 44.2958 46.272 45.1808 44.7717 46.7561C43.2714 48.3314 42.4286 50.468 42.4286 52.6958C42.4286 54.9236 43.2714 57.0602 44.7717 58.6355C46.272 60.2108 48.3068 61.0958 50.4286 61.0958C50.8104 61.1044 51.1923 61.0843 51.5714 61.0357V64.6357Z" fill="#1D1D1D"/>
<path fill-rule="evenodd" clip-rule="evenodd" d="M71.0001 64.6357C70.6204 64.6757 70.239 64.6958 69.8573 64.6958C66.8262 64.6958 63.9193 63.4315 61.7761 61.1811C59.6328 58.9306 58.4287 55.8784 58.4287 52.6958C58.4287 49.5132 59.6328 46.461 61.7761 44.2105C63.9193 41.9601 66.8262 40.6958 69.8573 40.6958C70.239 40.6958 70.6204 40.7159 71.0001 40.756V44.356C70.621 44.3073 70.2391 44.2872 69.8573 44.2958C68.0333 44.2956 66.2639 44.95 64.8426 46.1504C63.4213 47.3507 62.4333 49.0251 62.0425 50.8958H68.7144V54.4958H62.0425C62.4333 56.3665 63.4213 58.0409 64.8426 59.2412C66.2639 60.4416 68.0333 61.096 69.8573 61.0958C70.2391 61.1044 70.621 61.0843 71.0001 61.0357V64.6357Z" fill="#1D1D1D"/>
</g>
<path d="M99 61.2515H79V65.2515H99V61.2515Z" fill="#1D1D1D"/>
<path d="M90.2431 41.3012H88.5784V41.5587H90.2431V41.3012ZM85.4866 42.1006C85.2291 42.2383 85.0289 42.4064 84.9183 42.6116H85.4866V42.1006ZM94.1295 44.5509L93.5024 45.1794L93.4721 45.499H94.2248V44.5509H94.1295ZM88.4694 49.5728L85.2291 46.2097L85.7603 52.2853L88.4694 49.5728ZM89.1103 49.5811L92.2081 52.7911L92.851 46.0039H92.7876V45.8957L89.1103 49.5811ZM85.1665 45.4945L88.7913 49.2505L90.9353 47.1039H87.9125V45.9807H91.4085V46.6301L92.7876 45.2493V44.0459H93.0364L93.1169 43.1965H84.9656L85.1665 45.4945ZM93.9179 55.2277C93.9329 55.3154 93.9407 55.4055 93.9407 55.4974C93.9407 56.3908 93.2047 57.1149 92.2968 57.1149C91.6663 57.1149 91.1187 56.7657 90.8429 56.2532H86.8228V57.0981H85.7652V56.251C85.6413 56.2339 85.5225 56.118 85.5119 55.9965L85.286 53.4139L79.683 59.0293L79.348 58.7055L85.2335 52.8127L84.599 45.5558L79 39.7447V39.1047L84.5366 44.8418L84.3907 43.1732H83.7031V42.6116H84.3081C84.3185 42.5801 84.3323 42.5432 84.3504 42.502C84.5516 42.0446 84.967 41.7176 85.4867 41.4849V41.1138H86.462V41.1712C86.9701 41.0563 87.5073 40.9938 88.0077 40.9621V40.7397H90.814V42.1203H88.0077V41.5371C87.5107 41.5737 86.962 41.6404 86.462 41.7575V42.6116H93.0945C92.8342 42.0074 91.8222 41.7244 90.8139 41.5962V41.0243C91.8258 41.1478 92.866 41.4262 93.3881 42.0276C93.5274 41.8531 93.7439 41.741 93.987 41.741C94.4073 41.741 94.748 42.0762 94.748 42.4897C94.748 42.9032 94.4073 43.2385 93.987 43.2385C93.8823 43.2385 93.7826 43.2177 93.6918 43.1801L93.6098 44.0459H93.9896L99 39.0293V39.6696L94.6334 44.0458H94.7243V46.0039H93.4243L92.7302 53.332L97.8649 58.6527L97.5243 58.9708L93.9179 55.2277ZM90.6528 55.4974C90.6528 54.6683 91.2868 53.9848 92.1039 53.891L92.151 53.3939L88.7883 49.9038L85.8127 52.886L86.058 55.6917H90.6645C90.6568 55.628 90.6528 55.5632 90.6528 55.4974ZM91.4418 55.4974C91.4418 55.962 91.8245 56.3386 92.2967 56.3386C92.7689 56.3386 93.1517 55.962 93.1517 55.4974C93.1517 55.0328 92.7689 54.6563 92.2967 54.6563C91.8245 54.6563 91.4418 55.0328 91.4418 55.4974ZM91.7415 55.4974C91.7415 55.1957 91.9901 54.9511 92.2967 54.9511C92.6034 54.9511 92.852 55.1957 92.852 55.4974C92.852 55.7992 92.6034 56.0437 92.2967 56.0437C91.9901 56.0437 91.7415 55.7992 91.7415 55.4974Z" fill="#1D1D1D"/>
<path d="M2.59193 47.792C1.30393 47.792 0.279934 47.192 0.231934 45.88L1.47193 45.744C1.47193 46.504 1.94393 46.864 2.63193 46.864C3.26393 46.864 3.68793 46.616 3.68793 46.112C3.68793 45.576 3.15193 45.528 2.33593 45.344C1.25593 45.096 0.391934 44.712 0.391934 43.64C0.391934 42.496 1.49593 42 2.51193 42C3.72793 42 4.58393 42.472 4.71993 43.752L3.51193 43.944C3.47993 43.192 3.09593 42.92 2.50393 42.92C1.96793 42.92 1.60793 43.152 1.60793 43.568C1.60793 43.992 2.06393 44.152 2.79993 44.304C3.95993 44.536 4.90393 44.856 4.90393 46.064C4.90393 47.256 3.88793 47.792 2.59193 47.792Z" fill="#1D1D1D"/>
<path d="M5.30131 47.696V42.096H9.11731V43.064H6.50931V44.384H8.82131V45.352H6.50931V46.728H9.11731V47.696H5.30131Z" fill="#1D1D1D"/>
<path d="M13.0159 47.696L14.8479 44.792L13.1519 42.096H14.5279L15.0799 43.08C15.2239 43.328 15.3919 43.616 15.5279 43.872H15.5359L15.9759 43.08L16.5279 42.096H17.8879L16.1839 44.8L18.0079 47.696H16.6079L15.9519 46.568C15.8079 46.32 15.6399 46 15.5039 45.752H15.4959C15.3999 45.936 15.2079 46.288 15.0399 46.576L14.3999 47.696H13.0159Z" fill="#1D1D1D"/>
<path d="M24.5919 47.792C23.3039 47.792 22.2799 47.192 22.2319 45.88L23.4719 45.744C23.4719 46.504 23.9439 46.864 24.6319 46.864C25.2639 46.864 25.6879 46.616 25.6879 46.112C25.6879 45.576 25.1519 45.528 24.3359 45.344C23.2559 45.096 22.3919 44.712 22.3919 43.64C22.3919 42.496 23.4959 42 24.5119 42C25.7279 42 26.5839 42.472 26.7199 43.752L25.5119 43.944C25.4799 43.192 25.0959 42.92 24.5039 42.92C23.9679 42.92 23.6079 43.152 23.6079 43.568C23.6079 43.992 24.0639 44.152 24.7999 44.304C25.9599 44.536 26.9039 44.856 26.9039 46.064C26.9039 47.256 25.8879 47.792 24.5919 47.792Z" fill="#1D1D1D"/>
<path d="M27.2613 47.696V42.096H31.0773V43.064H28.4613V44.384H30.7813V45.352H28.4613V47.696H27.2613Z" fill="#1D1D1D"/>
<path d="M22.4402 5.696V0.0959997H24.2162L24.7602 2.456C24.8882 2.976 24.9922 3.592 25.0402 3.968H25.0802C25.1362 3.592 25.2402 2.92 25.3442 2.472L25.9042 0.0959997H27.6482V5.696H26.5922V2.52C26.5922 2.264 26.6082 1.592 26.6242 1.048H26.5762C26.4642 1.632 26.3202 2.32 26.2562 2.592L25.6562 5.152H24.4482L23.8402 2.6C23.7682 2.304 23.6242 1.576 23.5122 1.048H23.4642C23.4722 1.592 23.4962 2.304 23.4962 2.56V5.696H22.4402Z" fill="#1D1D1D"/>
<path d="M30.2701 5.792C28.7981 5.792 28.0701 5.112 28.0701 3.872V0.0959997H29.2781V3.8C29.2781 4.488 29.6381 4.808 30.2701 4.808C30.9101 4.808 31.2781 4.488 31.2781 3.8V0.0959997H32.4861V3.872C32.4861 5.096 31.7501 5.792 30.2701 5.792Z" fill="#1D1D1D"/>
<path d="M34.8061 5.792C33.6621 5.792 32.8221 5.192 32.7901 4.016L33.9581 3.832C33.9581 4.472 34.2701 4.856 34.8061 4.856C35.4061 4.856 35.6781 4.472 35.6781 3.88C35.6781 3.248 35.2861 2.984 34.8141 2.984C34.4781 2.984 34.1741 3.112 34.0061 3.328L32.9341 3.112L33.3661 0.0959997H36.5901V1.08H34.3421L34.1581 2.36C34.3981 2.136 34.7181 2.008 35.1501 2.008C35.9661 2.008 36.8701 2.576 36.8701 3.888C36.8701 4.96 36.1901 5.792 34.8061 5.792Z" fill="#1D1D1D"/>
<path d="M37.8517 5.704V4.752H38.5477V1.8C38.2757 2.048 37.8677 2.152 37.4517 2.152C37.3717 2.152 37.2837 2.144 37.2037 2.136V1.12C38.0837 1.12 38.5557 0.816 38.6997 0.104H39.6917V4.752H40.3077V5.704H37.8517Z" fill="#1D1D1D"/>
<path d="M43.202 5.792C41.658 5.792 40.642 4.84 40.642 2.896C40.642 1.096 41.658 0 43.202 0C44.346 0 45.218 0.608 45.506 1.768L44.314 2C44.186 1.296 43.826 0.936 43.21 0.936C42.77 0.936 42.442 1.056 42.234 1.344C42.002 1.664 41.898 2.176 41.898 2.896C41.898 3.632 42.002 4.096 42.226 4.408C42.442 4.704 42.754 4.84 43.202 4.84C43.826 4.84 44.186 4.456 44.338 3.864L45.538 4.184C45.162 5.128 44.386 5.792 43.202 5.792Z" fill="#1D1D1D"/>
<path d="M0.0961914 5.696L1.95219 0.0959997H3.28019L5.12819 5.696H3.88019L3.49619 4.384H1.72019L1.34419 5.696H0.0961914ZM2.00019 3.384H3.20819L2.88819 2.288C2.82419 2.056 2.68819 1.584 2.60819 1.232H2.58419C2.49619 1.608 2.41619 1.936 2.31219 2.288L2.00019 3.384Z" fill="#1D1D1D"/>
<path d="M5.632 5.704V4.752H6.328V1.8C6.056 2.048 5.648 2.152 5.232 2.152C5.152 2.152 5.064 2.144 4.984 2.136V1.12C5.864 1.12 6.336 0.816 6.48 0.104H7.472V4.752H8.088V5.704H5.632Z" fill="#1D1D1D"/>
<path d="M89.3336 0.608C88.9816 0.688 88.8136 0.96 88.8056 1.296H89.3496V2.536H88.1496V1.296C88.1496 0.6 88.6616 0.136 89.3336 0.0159998V0.608Z" fill="#1D1D1D"/>
<path d="M90.3 5.696C90.348 4.344 90.956 3.656 91.98 3.016C92.652 2.592 93.044 2.352 93.044 1.744C93.044 1.36 92.868 1.064 92.412 1.064C91.78 1.064 91.676 1.576 91.692 2.088L90.484 1.912C90.468 0.96 91.036 0.12 92.444 0.12C93.524 0.12 94.236 0.704 94.236 1.768C94.236 2.728 93.74 3.176 92.78 3.768C92.212 4.12 91.852 4.328 91.732 4.736H94.244V5.696H90.3Z" fill="#1D1D1D"/>
<path d="M96.8908 2.528C96.8908 2.328 96.8988 1.952 96.9068 1.592C96.7228 1.912 96.5068 2.248 96.4028 2.4L95.9388 3.096C95.8268 3.264 95.6588 3.504 95.4828 3.744C95.7388 3.744 96.0108 3.736 96.1148 3.736H96.8908V2.528ZM94.4748 4.656V3.616L96.7548 0.216H97.9468V3.736H98.6508V4.656H97.9468V5.696H96.8908V4.656H94.4748Z" fill="#1D1D1D"/>
<defs>
<clipPath id="clip0_181_403">
<rect width="99" height="27" fill="white" transform="matrix(1 0 0 -1 0 35.6958)"/>
</clipPath>
<clipPath id="clip1_181_403">
<rect width="32" height="24" fill="white" transform="translate(39 40.6958)"/>
</clipPath>
</defs>
</svg>
